<svg width="21" height="22" viewBox="0 0 21 22" fill="none" xmlns="http://www.w3.org/2000/svg">
<g filter="url(#filter0_d)">
<path d="M9.66671 12C10.85 11.9998 11.9992 11.6036 12.9314 10.8747L15.862 13.8053L16.8047 12.8627L13.874 9.932C14.6034 8.99977 14.9998 7.85029 15 6.66666C15 3.726 12.6074 1.33333 9.66671 1.33333C6.72604 1.33333 4.33337 3.726 4.33337 6.66666C4.33337 9.60733 6.72604 12 9.66671 12ZM9.66671 2.66666C11.8727 2.66666 13.6667 4.46066 13.6667 6.66666C13.6667 8.87266 11.8727 10.6667 9.66671 10.6667C7.46071 10.6667 5.66671 8.87266 5.66671 6.66666C5.66671 4.46066 7.46071 2.66666 9.66671 2.66666Z" fill="black"/>
</g>
<defs>
<filter id="filter0_d" x="-1" y="0" width="24" height="24" filterUnits="userSpaceOnUse" color-interpolation-filters="sRGB">
<feFlood flood-opacity="0" result="BackgroundImageFix"/>
<feColorMatrix in="SourceAlpha" type="matrix" values="0 0 0 0 0 0 0 0 0 0 0 0 0 0 0 0 0 0 127 0"/>
<feOffset dy="4"/>
<feGaussianBlur stdDeviation="2"/>
<feColorMatrix type="matrix" values="0 0 0 0 0 0 0 0 0 0 0 0 0 0 0 0 0 0 0.25 0"/>
<feBlend mode="normal" in2="BackgroundImageFix" result="effect1_dropShadow"/>
<feBlend mode="normal" in="SourceGraphic" in2="effect1_dropShadow" result="shape"/>
</filter>
</defs>
</svg>
